<?xml version="1.0" encoding="iso-8859-1"?>
<!-- Generator: Adobe Illustrator 20.0.0, SVG Export Plug-In . SVG Version: 6.00 Build 0)  -->
<svg version="1.1" id="Layer_1" xmlns="http://www.w3.org/2000/svg" xmlns:xlink="http://www.w3.org/1999/xlink" x="0px" y="0px"
	 viewBox="0 0 1100 1100" style="enable-background:new 0 0 1100 1100;" xml:space="preserve">
<g>
	<circle style="fill:#231F20;" cx="364.875" cy="345.625" r="53.125"/>
	<g>
		<circle style="fill:#231F8D;" cx="442.542" cy="345.625" r="53.125"/>
		<circle style="fill:#23BF20;" cx="412.542" cy="273.625" r="53.125"/>
	</g>
</g>
<circle style="fill:#FF1F00;" cx="431" cy="604" r="86"/>
<g>
	<polygon style="fill:#231F8D;" points="727,475.723 740.307,502.685 770.061,507.009 748.53,527.996 753.613,557.63 727,543.638 
		700.387,557.63 705.47,527.996 683.939,507.009 713.693,502.685 	"/>
	<polygon style="fill:#23BF20;" points="749,441.056 762.307,468.018 792.061,472.342 770.53,493.329 775.613,522.963 749,508.972 
		722.387,522.963 727.47,493.329 705.939,472.342 735.693,468.018 	"/>
	<polygon style="fill:#231F20;" points="772.333,475.723 785.64,502.685 815.394,507.009 793.864,527.996 798.946,557.63 
		772.333,543.638 745.72,557.63 750.803,527.996 729.272,507.009 759.027,502.685 	"/>
</g>
<polygon style="fill:#23BF20;" points="122,566 183,523 231,547 230,587 195,619 135,618 "/>
<polygon style="fill:#FF1F00;" points="776,105 779,173 827,173 834,218 796,245 753,256 698,232 677,163 704,93 "/>
</svg>
